<svg width="450" height="550" xmlns="http://www.w3.org/2000/svg" stroke="null">
 <g id="Layer_1">
  <title>Layer 1</title>
  <path transform="rotate(-15.1141 365.573 106.551)" stroke="#000" id="svg_12" d="m379.15638,6.55087l-25.60203,56.29669l10.55676,6.6439l-32.23784,48.23393l10.55203,8.05525l-39.85271,80.77024l67.5973,-61.89708l-12.89324,-8.59577l42,-39.64566l-15.05,-12.25179l44.34595,-41.59003l-49.41622,-36.01967z" fill="#ffff56"/>
  <path id="svg_1" d="m20.28021,554.78125" opacity="NaN" stroke="#000" fill="#ffff00"/>
  <path d="m238.33521,140.27948c0,0 1.34619,0.70546 3,3c1.30745,1.814 3.51301,3.59399 5,6c1.66251,2.68999 3.19028,5.88152 5,9c2.24468,3.868 4.90966,6.30806 7,10c2.03145,3.58792 2.11587,6.96384 3,10c1.15277,3.95868 2.11587,6.96384 3,10c1.15277,3.95868 0.51945,7.03874 1,10c0.50654,3.12144 1.53492,4.31076 3,6c2.07193,2.38895 2.77025,4.02676 3,5c0.51374,2.17624 2,2 2,3c0,1 0.54049,2.0535 1,4c0.51374,2.17624 0.61732,4.07611 1,5c0.54119,1.30655 1,3 1,5c0,0 0,0 1,0c1,0 1,0 2,0c0,0 2,0 2,0c3,0 5,0 7,0c3,0 5.02583,-0.32037 7,0c3.12144,0.50653 6.05165,0.35928 10,1c3.12144,0.50653 6.03873,0.51944 9.00001,1c3.12144,0.50653 6,1 9,1c2,0 3,0 6,0c2,0 5.05165,0.35928 9,1c3.12144,0.50653 6,1 8,1c4,0 7,0 9,0c3,0 5.99999,0 7.99999,0c3,0 6,0 9,0c2,0 4,0 7,0c2,0 4,0 5,0c1,0 2,0 4,0c1,0 0,0 0,0c-2,0 -2.4588,0.30655 -3,-1c-0.38269,-0.92389 -1,-2 -1,-3c0,-2 0,-4 0,-6c0,-3 -0.21014,-5.07843 1,-8c0.85571,-2.06586 1.95517,-4.54916 3,-8c0.86935,-2.87128 1,-5 2,-7c1,-2 3.14429,-4.93414 4,-7c1.21014,-2.92157 2.19028,-4.88152 4,-8c1.12234,-1.93399 3,-5 5,-9c1,-2 3.31021,-4.71899 6,-8c2.28587,-2.78833 3.41589,-6.76108 5,-10c1.38936,-2.84073 3.61064,-6.15927 5,-9c1.58411,-3.23892 3.84723,-5.04132 5,-9c0.88414,-3.03616 2.78986,-5.07843 4,-8c0.85571,-2.06586 1.69255,-4.186 3,-6c1.65381,-2.29454 3,-4 3,-5c0,-2 -0.41422,-2.58578 1,-4c0.70711,-0.70711 1,-1 0,-1c0,0 -1,0 -2,0c-2,0 -3,0 -4,0c-1,0 -3,0 -5,0c-3,0 -4,0 -5,0c-1,0 -3,0 -4,0c-1,0 -2.186,0.69255 -4,2c-1.14726,0.8269 -2.29289,2.29289 -3,3c-2.12132,2.12132 -3.41885,2.41885 -5,4c-1.58115,1.58115 -4,2 -6,4c-2,2 -4,3 -6,5c-1,1 -3.186,2.69255 -5,4c-2.29454,1.65381 -3,3 -5,5c-1,1 -2.186,1.69255 -4,3c-1.14726,0.8269 -1.02675,1.77025 -2,2c-2.17625,0.51375 -2.41885,1.41885 -4,3c-1.58115,1.58115 -2,2 -3,3c-1,1 -1.09789,2.82443 -3,4c-0.85065,0.52573 -2,2 -2,2c0,0 -0.29289,0.29289 -1,1c-0.70711,0.70711 -1.29289,0.70711 -1.99999,0c-0.70711,-0.70711 -1.1731,-1.85274 -2,-3c-1.30745,-1.814 -2.2565,-3.797 -3,-5c-1.66251,-2.68999 -2.19028,-4.88152 -4,-8c-1.12234,-1.93399 -1,-4 -3,-6c-1,-1 -2.4588,-3.69344 -3,-5c-0.38268,-0.92387 -1,-3 -2,-4c0,0 -0.07612,-0.61731 -1,-1c-1.30656,-0.5412 -1,-1 -1,-1c-1,0 -0.47427,-1.14935 -1,-2c-1.17557,-1.90211 -3.41886,-2.41885 -5,-4c-1.58114,-1.58115 -2.41886,-2.41885 -4,-4c-1.58114,-1.58115 -2.09789,-3.82443 -4,-5c-1.7013,-1.05147 -4.15099,-1.43463 -6,-4c-0.58471,-0.81125 -1.29289,-2.29289 -2,-3c-0.70711,-0.70711 -1,0 -2,0c-1,0 -1,0 -1,0c-1,2 -2.61384,3.297 -5.00001,6c-1.47984,1.67633 -3.19028,3.88152 -5,7c-1.12234,1.93399 -4.87766,6.06601 -6,8c-1.80972,3.11848 -4.33749,6.31001 -6,9c-1.48699,2.40601 -2.78985,4.07843 -4,7c-0.85571,2.06586 -3.91761,4.38687 -5,7c-0.76537,1.84776 0,4 -1,5c0,0 -1,1 -1,2c0,0 -1,1 -1,1c-1,0 -3,0 -6,0c-1,0 -3,0 -3,0c-2,0 -3,-1 -5,-2c-2,-1 -3.85273,-1.1731 -5,-2c-1.81399,-1.30745 -3.47427,-1.14935 -4,-2c-1.17557,-1.90211 -3,-1 -3,-1c-2,0 -2.02675,-0.77025 -3,-1c-2.17625,-0.51375 -2.07612,-0.61731 -3,-1c-1.30656,-0.5412 -1.07612,-0.61731 -2,-1c-2.61313,-1.0824 -2.69344,-2.4588 -4,-3c-0.92388,-0.38269 -3,-1 -3,-1c-1,0 -2,0 -2,-1c0,0 -1,0 -1,0l0,0l0,-1l0,-1" id="svg_9" stroke="#000" fill="#ff7f00"/>
  <path transform="rotate(-2.87882 332.776 202.16)" stroke="#000" d="m400.22698,180.3033c0,0 -1.13264,0.38269 -2.10503,0c-1.37518,-0.5412 -2.26526,-0.23463 -4.21006,-1c-1.37518,-0.5412 -3.15754,-1 -4.21006,-1c-3.15754,0 -4.21006,0 -5.26257,0c-1.05251,0 -3.15754,0 -3.15754,0c-2.10503,0 -2.10503,0 -4.21006,0c-1.05251,0 -1.95003,0.1731 -3.15754,1c-1.90926,1.30745 -3.15754,1 -4.21006,1c0,0 -0.30827,0.29289 -1.05251,1c-1.48848,1.41422 -2.10503,1 -2.10503,1c-1.05251,0 -1.05251,1 -1.05251,1c-1.05251,0 -1.05251,0 -2.10503,1c0,0 -0.30827,0.29289 -1.05251,1c-0.74424,0.70711 -1.70224,0.07613 -2.10502,1c-0.56962,1.30656 -1.05251,1 -2.10503,2c-1.05251,1 -2.10503,2 -2.10503,2c-1.05251,1 -1.36079,1.29289 -2.10503,2c-0.74424,0.70711 -0.30827,1.29289 -1.05251,2c-0.74424,0.70711 -1.05251,2 -2.10503,3c0,0 0,1 0,1c-1.05251,0 -1.05251,1 -1.05251,1c0,1 0,1 0,2c0,1 0,1 0,2c0,0 -1.05251,0 -1.05251,1c0,0 0,1 0,1c0,0 -0.4829,0.69345 -1.05251,2c-0.80556,1.84775 -0.08012,2.61731 -1.05251,3c-1.37518,0.5412 -1.05251,2 -1.05251,3c0,0 0,1 0,2c0,1 0,1 -1.05251,1c-1.05251,0 -2.27267,-0.61066 -5.26257,-2c-3.40901,-1.58411 -6.64159,-3.71899 -9.47263,-7c-2.40592,-2.78833 -4.77985,-5.70267 -6.31509,-9c-1.75561,-3.77065 -3.80026,-7.15927 -5.26257,-10c-1.6673,-3.23892 -4.21006,-5 -5.26257,-7c-1.05251,-2 -2.83396,-3.186 -4.21007,-5c-0.87033,-1.14726 -2.10503,-2 -3.15754,-4c0,0 -2.58792,-0.69344 -3.15754,-2c-0.40278,-0.92387 -0.30827,-0.29289 -1.05251,-1c-0.74424,-0.70711 0,0 0,1c0,3 0,4 0,7c0,3 0,6 0,8c0,2 0,4 0,5c0,3 0,4 0,6c0,1 0,1 1.05251,2c0,0 0,2 0,4c0,1 0,2 -1.05251,2c-2.10503,0 -2.83488,-1.4588 -4.21006,-2c-1.94479,-0.76537 -4.29017,-1.61731 -5.26257,-2c-1.37518,-0.5412 -3.00254,-2.1731 -4.21006,-3c-1.90925,-1.30745 -3.1857,-2.77025 -4.21006,-3c-2.29054,-0.51375 -1.78237,-2.4588 -3.15754,-3c-0.97239,-0.38269 -2.4133,-1.29289 -3.15754,-2c-0.74424,-0.70711 -1.05251,-1 -2.10503,-2c0,0 0.74424,-0.29289 0,-1c-0.74424,-0.70711 -1.05251,-1 -1.05251,-1c0,0 0,1 0,2c0,1 0,2 0,2c0,1 -1.36079,1.29289 -2.10503,2c-0.74424,0.70711 -1.05251,2 -1.05251,2c0,1 0,1 -1.05251,1c0,0 0,0 -1.05251,1c0,0 0,1 -1.05251,2c0,0 -1.05251,2 -1.05251,2c-1.05251,1 -1.53541,0.69344 -2.10503,2c-0.40278,0.92387 0,1 0,2c0,0 -0.30827,0.29289 -1.05251,1c-0.74424,0.70711 1.05251,1 1.05251,1c1.05251,0 2.10503,1 2.10503,2c0,0 0.30827,-0.70709 1.05251,0c0.74424,0.70709 1.05251,1 1.05251,2c0,0 0,1 1.05251,1c0,0 1.05251,1 1.05251,2c0,1 0,1 0,2c0,0 1.05251,1 1.05251,1c0,1 0.30827,1.29291 1.05251,2c0.74424,0.70709 0,1 0,2c0,0 1.05251,0 1.05251,1c0,0 0,1 0,2c0,0 0,1 0,1c0,1 0,1 0,2c0,0 -1.05251,-1 -1.05251,0c0,1 1.05251,0 2.10503,0c1.05251,0 1.78237,0.4588 3.15754,1c0.97239,0.38269 2.10503,0 3.15754,0c1.05251,0 2.10503,0 3.15754,0c1.05251,0 2.13319,-0.22977 3.15754,0c2.29054,0.51373 3.15754,1 5.26257,1c1.05251,0 3.15754,1 4.21005,1c1.05251,0 3.15754,0 4.21006,0c1.05251,0 3.15754,1 5.26257,1c1.05251,0 2.10503,0 4.21007,0c1.05251,0 2.10503,0 4.21006,0c2.10503,0 3.15754,1 5.26257,1c2.10503,0 4.21006,1 7.3676,1c2.10503,0 4.02455,0.48627 6.31509,1c1.02436,0.22977 3.15754,0 4.21006,0c2.10503,0 3.15754,0 5.26257,0c1.05251,0 2.10503,0 4.21006,0c1.05251,0 2.10503,0 3.15754,0c2.10503,0 3.15754,1 4.21006,1c1.05251,0 3.15754,0 4.21006,0c1.05251,0 1.91951,0.48627 4.21005,1c1.02436,0.22977 2.10503,0 3.15754,0c1.05251,0 3.15754,0 4.21006,0c1.05251,0 3.15754,1 4.21006,1c1.05251,0 1.05251,0 2.10503,0c0,0 2.10503,0 2.10503,0c1.05251,0 2.10503,0 3.15754,0c0,0 1.05251,0 2.10503,0c0,0 1.05251,-1 1.05251,-1c0,-1 1.36079,-0.29291 2.10503,-1c0.74424,-0.70709 0,-1 0,-2c0,-1 0,-1 -1.05251,-1c0,0 0,-1 0,-1c0,-1 0,-2 0,-2c0,-1 -1.05251,-2 -1.05251,-3c0,-1 0,-1 0,-2c0,-2 0,-2 0,-3c0,-1 0,-2 0,-3c0,-1 0.4829,-1.69345 1.05251,-3c0.40279,-0.92389 0.4829,-2.69345 1.05251,-4c0.40279,-0.92389 1.05251,-1 2.10503,-2c1.05251,-1 1.13264,-2.61731 2.10503,-3c1.37518,-0.5412 0.8107,-1.02675 1.05251,-2c0.54073,-2.17625 2.58792,-1.69344 3.15754,-3c0.40279,-0.92387 0,-1 1.05251,-2c0,0 1.05251,-2 1.05251,-2c0,-1 1.36079,-2.29289 2.10503,-3c0.74424,-0.70711 1.05251,-1 1.05251,-2c0,0 0,-1 0,-1c1.05251,-1 1.05251,-1 1.05251,-2c0,0 0,0 0,-1c0,-1 0,-1 0,-2c0,0 0,-1 0,-1l0,-1l0,0l0,-1" id="svg_11" fill="#ffff00"/>
 </g>
</svg>